<?xml version="1.0" standalone="no"?>
<!DOCTYPE svg PUBLIC "-//W3C//DTD SVG 20010904//EN"
 "http://www.w3.org/TR/2001/REC-SVG-20010904/DTD/svg10.dtd">
<svg version="1.0" xmlns="http://www.w3.org/2000/svg"
 width="700.000000pt" height="700.000000pt" viewBox="0 0 700.000000 700.000000"
 preserveAspectRatio="xMidYMid meet">
<metadata>
Created by potrace 1.14, written by Peter Selinger 2001-2017
</metadata>
<g transform="translate(0.000000,700.000000) scale(0.100000,-0.100000)"
fill="#000000" stroke="none">
<path d="M2719 5362 c-11 -26 -29 -68 -41 -94 -12 -28 -25 -45 -32 -42 -8 3
-23 -21 -41 -63 -16 -37 -41 -95 -56 -128 -48 -108 -89 -203 -89 -209 0 -4 9
-10 19 -14 17 -6 4 -27 -101 -177 -66 -93 -131 -186 -144 -205 -21 -31 -209
-299 -296 -422 -18 -26 -38 -48 -44 -48 -7 0 -44 14 -82 30 -39 17 -75 30 -79
30 -5 0 -24 -39 -42 -86 -24 -61 -40 -88 -56 -94 -12 -5 -26 -19 -30 -32 -4
-13 -8 -25 -9 -28 -2 -3 -7 -16 -13 -30 -6 -14 -36 -86 -67 -160 -31 -74 -55
-139 -53 -145 3 -5 22 -16 43 -23 42 -14 54 -19 124 -50 25 -10 66 -27 92 -37
26 -10 52 -23 58 -30 5 -6 28 -56 50 -111 23 -54 50 -118 61 -141 10 -24 19
-45 19 -48 0 -3 8 -24 19 -48 21 -50 5 -10 198 -472 l154 -369 -62 -149 c-34
-82 -58 -152 -53 -157 19 -17 387 -161 394 -153 4 4 22 45 41 91 27 68 36 81
51 76 10 -3 18 -1 18 4 0 6 42 9 103 7 56 -2 251 -6 432 -10 182 -4 376 -8
433 -10 56 -1 105 -4 107 -7 3 -3 1 -17 -4 -31 -7 -19 -7 -28 2 -34 17 -11
389 -154 392 -151 1 2 11 30 24 63 36 99 45 115 62 115 9 0 19 6 22 13 3 6 37
95 76 196 67 172 74 187 128 244 32 33 69 72 83 87 14 14 79 84 145 154 66 71
134 143 150 160 17 18 83 89 148 158 l118 125 85 -34 c47 -19 88 -33 90 -30 2
2 20 42 38 88 24 58 40 85 52 87 14 2 39 52 97 198 44 108 77 197 75 198 -3 2
-37 16 -113 46 -11 5 -53 21 -94 37 -77 29 -73 25 -114 123 -8 19 -92 224
-185 455 -94 231 -194 476 -222 545 -28 69 -52 134 -52 145 0 19 81 229 102
267 6 10 10 22 10 27 0 5 -66 35 -147 66 -82 32 -168 66 -192 76 -24 10 -46
17 -50 14 -4 -2 -16 -23 -25 -47 -49 -117 -43 -109 -84 -104 -20 3 -66 8 -102
11 -36 3 -76 8 -90 10 -14 3 -48 7 -75 9 -28 3 -71 7 -98 10 -57 7 -118 14
-172 20 -60 7 -156 18 -190 21 -65 8 -128 15 -183 20 -31 3 -68 8 -82 10 -14
2 -52 7 -85 10 -140 12 -156 16 -150 34 4 14 -8 24 -62 46 -38 16 -86 36 -108
46 -22 10 -82 36 -132 58 l-93 39 -21 -46z m491 -327 c19 -2 62 -7 95 -10 33
-3 78 -8 100 -10 22 -3 63 -7 90 -10 28 -3 61 -8 75 -10 14 -2 52 -7 85 -10
33 -3 71 -8 85 -10 24 -3 76 -9 185 -20 28 -3 66 -8 85 -10 19 -2 55 -7 80 -9
25 -3 72 -8 105 -12 33 -4 68 -8 77 -9 26 -2 32 -13 18 -30 -7 -9 -23 -13 -39
-10 -25 4 -71 10 -168 20 -27 3 -59 7 -73 10 -14 2 -52 7 -85 10 -33 3 -67 8
-75 10 -8 2 -46 6 -85 10 -38 4 -104 11 -145 16 -41 6 -93 12 -115 15 -22 2
-58 7 -80 10 -64 8 -97 12 -150 18 -146 16 -218 26 -222 30 -3 3 -2 10 2 16 7
11 42 10 155 -5z m-80 -180 c19 -2 55 -7 80 -10 25 -2 63 -7 85 -9 22 -3 65
-8 95 -11 30 -3 66 -8 80 -10 14 -2 52 -7 85 -10 33 -3 71 -7 85 -10 14 -2 55
-7 91 -10 36 -3 76 -8 90 -10 13 -2 51 -7 84 -10 33 -3 74 -8 90 -10 17 -2 50
-6 75 -9 25 -3 71 -8 102 -12 l57 -6 -16 -33 c-9 -18 -13 -39 -11 -47 3 -7 69
-38 147 -68 78 -30 146 -59 151 -65 4 -5 85 -199 178 -431 185 -455 189 -464
208 -509 49 -118 104 -262 104 -276 0 -9 -9 -38 -21 -65 -11 -27 -24 -58 -29
-69 -53 -126 -67 -170 -57 -177 8 -5 4 -16 -13 -35 -14 -15 -29 -32 -35 -39
-5 -6 -44 -47 -85 -91 -41 -43 -104 -110 -140 -149 -36 -39 -117 -126 -181
-195 -64 -68 -139 -147 -165 -176 l-49 -52 -104 40 c-57 21 -107 39 -111 39
-7 0 -21 -30 -57 -125 -11 -27 -26 -50 -34 -50 -8 0 -19 -4 -26 -8 -6 -4 -96
-5 -200 -3 -869 22 -863 22 -869 29 -3 3 0 15 6 27 6 12 10 23 8 24 -2 2 -70
30 -153 63 l-149 60 -173 414 c-96 228 -177 421 -180 429 -3 8 -40 98 -82 200
l-77 185 30 70 c79 188 87 208 84 210 -2 1 -18 10 -35 19 l-33 16 122 173
c183 259 227 321 238 337 6 8 32 45 58 82 26 37 76 108 110 157 64 90 76 100
110 81 9 -5 50 -23 90 -39 l73 -31 18 43 c10 23 28 65 41 94 14 33 27 50 35
47 8 -3 16 4 20 16 7 23 16 23 155 5z m1592 -448 c43 -105 145 -358 228 -561
82 -204 150 -374 150 -380 0 -30 -31 37 -135 294 -63 157 -119 294 -124 305
-6 11 -26 61 -45 110 -19 50 -65 162 -101 249 -36 88 -65 163 -65 168 0 33 25
-18 92 -185z m-2788 -1029 c8 -18 24 -55 34 -83 11 -27 31 -75 45 -105 14 -30
34 -77 45 -105 10 -27 82 -201 159 -385 78 -184 148 -352 156 -372 9 -21 13
-39 9 -42 -4 -2 -61 125 -126 282 -65 158 -127 305 -136 327 -10 22 -34 81
-54 130 -21 50 -43 104 -51 121 -22 48 -96 227 -102 247 -9 29 5 19 21 -15z
m1476 -1374 c157 -3 315 -6 352 -7 60 -1 66 -3 57 -18 -8 -16 -24 -17 -152
-14 -78 2 -261 7 -407 10 -244 7 -417 11 -497 14 -24 1 -31 5 -27 16 5 13 34
14 198 10 105 -2 319 -7 476 -11z"/>
<path d="M3429 4736 c-2 -2 -31 -6 -64 -10 -70 -7 -185 -37 -265 -68 -257
-101 -485 -308 -608 -553 -180 -356 -215 -474 -216 -715 -1 -152 15 -261 55
-368 10 -29 19 -66 19 -82 0 -18 11 -42 30 -63 17 -19 30 -40 30 -46 0 -6 5
-11 10 -11 6 0 10 -5 10 -11 0 -18 104 -159 161 -217 158 -163 390 -294 582
-328 17 -2 33 -7 36 -9 12 -7 148 -19 221 -19 113 1 199 12 302 41 51 15 114
28 139 29 54 2 105 26 113 52 4 11 43 43 89 73 144 94 300 268 377 419 12 24
33 52 46 63 13 10 29 37 35 60 6 23 24 68 40 100 37 71 88 222 95 279 3 24 10
60 14 82 9 43 6 291 -5 346 -47 241 -157 450 -328 621 -161 160 -354 264 -591
315 -65 14 -316 30 -327 20z"/>
</g>
</svg>
